<?xml version="1.0" encoding="utf-8"?>
<!-- Generator: Adobe Illustrator 20.0.0, SVG Export Plug-In . SVG Version: 6.00 Build 0)  -->
<svg version="1.1" xmlns="http://www.w3.org/2000/svg" xmlns:xlink="http://www.w3.org/1999/xlink" x="0px" y="0px"
	 viewBox="0 0 30 30" style="enable-background:new 0 0 30 30;" xml:space="preserve">
<style type="text/css">
	.st0{fill:#FFFFFF;}
	.st1{fill:#FF6010;}
	.st2{fill:#FFA600;}
	.st3{fill:#D6D4D0;}
	.st4{fill:#666666;}
</style>
<g id="レイヤー_2">
</g>
<g id="レイヤー_3">
	<g>
		<path class="st1" d="M15,2c-1.2,0-2.3,0.2-3.4,0.5l2,7.5c0.4-0.1,0.9-0.2,1.3-0.2c2.9,0,5.2,2.3,5.2,5.2c0,2.4-1.6,4.4-3.8,5
			l2,7.5C23.9,26.1,28,21,28,15C28,7.8,22.2,2,15,2z"/>
		<path class="st2" d="M15,20.2c-2.9,0-5.2-2.3-5.2-5.2c0-2.4,1.6-4.4,3.8-5l-2-7.5C6.1,3.9,2,9,2,15c0,7.2,5.8,13,13,13
			c1.2,0,2.3-0.2,3.4-0.5l-2-7.5C15.9,20.1,15.5,20.2,15,20.2z"/>
	</g>
</g>
<g id="レイヤー_4">
</g>
</svg>
