<svg xmlns="http://www.w3.org/2000/svg" viewBox="0 0 30 30"><defs><style>.cls-1{fill:none;stroke:#ffa600;stroke-miterlimit:10;stroke-width:1.97px;}</style></defs><title>icon_favorite</title><g id="レイヤー_9" data-name="レイヤー 9"><path class="cls-1" d="M14.39,3.88c.34-.68.89-.68,1.23,0L18.4,9.53a3,3,0,0,0,2,1.44l6.24.91c.75.11.93.63.38,1.17l-4.51,4.4a3,3,0,0,0-.76,2.33L22.8,26c.13.75-.32,1.08-1,.72l-5.58-2.93a3,3,0,0,0-2.45,0L8.19,26.72c-.68.35-1.12,0-1-.72l1.07-6.21a3,3,0,0,0-.76-2.33L3,13c-.55-.53-.38-1.06.38-1.17L9.61,11a3,3,0,0,0,2-1.44Z"/></g></svg>