<?xml version="1.0" encoding="utf-8"?>
<!-- Generator: Adobe Illustrator 20.0.0, SVG Export Plug-In . SVG Version: 6.00 Build 0)  -->
<svg version="1.1" xmlns="http://www.w3.org/2000/svg" xmlns:xlink="http://www.w3.org/1999/xlink" x="0px" y="0px"
	 viewBox="0 0 30 30" style="enable-background:new 0 0 30 30;" xml:space="preserve">
<style type="text/css">
	.st0{fill:#FFFFFF;}
	.st1{fill:#FF6010;}
	.st2{fill:#FFA600;}
	.st3{fill:#D6D4D0;}
	.st4{fill:#666666;}
</style>
<g id="レイヤー_2">
</g>
<g id="レイヤー_3">
</g>
<g id="レイヤー_4">
	<path class="st3" d="M26,28H4c-1.1,0-2-0.9-2-2V4c0-1.1,0.9-2,2-2h22c1.1,0,2,0.9,2,2v22C28,27.1,27.1,28,26,28z"/>
	<g>
		<path class="st4" d="M13.6,18.1c0-0.3,0.1-0.5,0.1-0.7l0-0.3c0-0.9,0.2-1.6,0.7-2.2c0.4-0.4,0.5-0.6,1.6-1.3
			c1.1-0.7,1.5-1.3,1.5-2c0-1-0.9-1.7-2.3-1.7c-0.9,0-1.6,0.4-2,1c-0.2,0.3-0.3,0.6-0.4,1.3l-2.5-0.3c0.3-1.2,0.6-1.9,1.3-2.5
			c0.9-0.8,2.1-1.2,3.7-1.2c2.7,0,4.5,1.4,4.5,3.3c0,0.8-0.2,1.4-0.6,2c-0.4,0.5-0.7,0.8-2.1,1.7c-1.1,0.7-1.3,1.1-1.3,2
			c0,0.3,0,0.5,0.1,0.9H13.6z M16,19.5v2.3h-2.4v-2.3H16z"/>
	</g>
</g>
</svg>
