<?xml version="1.0" encoding="utf-8"?>
<!-- Generator: Adobe Illustrator 20.0.0, SVG Export Plug-In . SVG Version: 6.00 Build 0)  -->
<svg version="1.1" xmlns="http://www.w3.org/2000/svg" xmlns:xlink="http://www.w3.org/1999/xlink" x="0px" y="0px"
	 viewBox="0 0 30 30" style="enable-background:new 0 0 30 30;" xml:space="preserve">
<style type="text/css">
	.st0{fill:#FFFFFF;}
	.st1{fill:#FF6010;}
	.st2{fill:#FFA600;}
	.st3{fill:#D6D4D0;}
	.st4{fill:#666666;}
	.st5{fill:#D4D2CE;}
	.st6{fill:none;stroke:#666666;stroke-width:2.4567;stroke-miterlimit:10;}
	.st7{fill:#CBCBCB;}
	.st8{fill:none;stroke:#FFA600;stroke-width:1.9654;stroke-miterlimit:10;}
	.st9{fill:#D9B340;}
	.st10{fill:#E4CA7A;}
	.st11{fill:#6F7B83;}
	.st12{fill:#9AA3A8;}
	.st13{fill:#A15326;}
	.st14{fill:#BD8768;}
	.st15{fill:#918D86;}
	.st16{fill:none;stroke:#666666;stroke-width:1.852;stroke-linecap:round;stroke-linejoin:round;stroke-miterlimit:10;}
	.st17{fill:none;}
</style>
<g id="レイヤー_2">
</g>
<g id="レイヤー_3">
</g>
<g id="レイヤー_4">
</g>
<g id="レイヤー_5">
</g>
<g id="レイヤー_6">
</g>
<g id="レイヤー_7">
</g>
<g id="レイヤー_8">
</g>
<g id="レイヤー_9">
</g>
<g id="レイヤー_10">
</g>
<g id="レイヤー_11">
</g>
<g id="レイヤー_12">
</g>
<g id="レイヤー_13">
</g>
<g id="レイヤー_14">
</g>
<g id="レイヤー_15">
</g>
<g id="レイヤー_16">
</g>
<g id="レイヤー_17">
</g>
<g id="レイヤー_20">
</g>
<g id="レイヤー_18">
</g>
<g id="レイヤー_21">
</g>
<g id="レイヤー_19">
</g>
<g id="レイヤー_7のコピー">
</g>
<g id="レイヤー_7のコピー_2">
</g>
<g id="レイヤー_23">
</g>
<g id="レイヤー_24">
</g>
<g id="レイヤー_25">
</g>
<g id="レイヤー_26">
</g>
<g id="レイヤー_27">
</g>
<g id="レイヤー_28">
	<path class="st1" d="M13.6,3.6c-0.4,0-0.7-0.2-0.8-0.5l0,0c-0.1-0.4,0.2-0.9,0.6-0.9C13.9,2,14.4,2,15,2c7.2,0,13,5.8,13,13
		c0,5.4-3.3,10-8,12c-0.4,0.2-0.9,0-1-0.5l0,0c-0.1-0.4,0.1-0.7,0.4-0.9c4.1-1.8,7.1-5.8,7.1-10.6c0-6.4-5.2-11.5-11.5-11.5
		C14.5,3.5,14,3.5,13.6,3.6z M13.6,26.5c-5.2-0.6-9.4-4.8-10-10C2.9,11,6.1,6.2,10.7,4.3c0.3-0.1,0.5-0.5,0.5-0.9l0,0
		c-0.1-0.4-0.6-0.6-1-0.5c-5.1,2-8.7,7.3-8.2,13.3c0.5,5.3,4.3,9.9,9.5,11.3c1.9,0.5,3.6,0.6,5.3,0.3c0.4-0.1,0.7-0.5,0.6-0.9l0,0
		c-0.1-0.4-0.5-0.6-0.8-0.5C15.7,26.6,14.6,26.6,13.6,26.5z M16.1,26.2l4.2-8.7l0.1-0.1c0.3-0.6,1-2.2,1-4.1c0-3.4-2.8-6.2-6.2-6.2
		c-3.4,0-6.2,2.8-6.2,6.2c0,1.9,0.7,3.5,1,4.1l4.2,8.8c0.2,0.4,0.6,0.6,1,0.6C15.5,26.9,15.9,26.6,16.1,26.2z M19.9,13.3
		c0,1.6-0.6,3-0.9,3.5l-3.9,8.1l-3.8-8l-0.1-0.1c-0.2-0.5-0.9-1.9-0.9-3.5c0-2.6,2.1-4.7,4.7-4.8C17.7,8.6,19.9,10.7,19.9,13.3z
		 M17.1,13.2c0,1.1-0.9,2-2,2s-2-0.9-2-2s0.9-2,2-2S17.1,12.1,17.1,13.2z"/>
</g>
<g id="レイヤー_29">
</g>
</svg>
