<?xml version="1.0" encoding="utf-8"?>
<!-- Generator: Adobe Illustrator 20.0.0, SVG Export Plug-In . SVG Version: 6.00 Build 0)  -->
<svg version="1.1" xmlns="http://www.w3.org/2000/svg" xmlns:xlink="http://www.w3.org/1999/xlink" x="0px" y="0px"
	 viewBox="0 0 30 30" style="enable-background:new 0 0 30 30;" xml:space="preserve">
<style type="text/css">
	.st0{fill:#FFFFFF;}
	.st1{fill:#FF6010;}
	.st2{fill:#FFA600;}
	.st3{fill:#D6D4D0;}
	.st4{fill:#666666;}
	.st5{fill:#D4D2CE;}
	.st6{fill:none;stroke:#666666;stroke-width:2.4567;stroke-miterlimit:10;}
	.st7{fill:#CBCBCB;}
	.st8{fill:none;stroke:#FFA600;stroke-width:1.9654;stroke-miterlimit:10;}
	.st9{fill:#D9B340;}
	.st10{fill:#E4CA7A;}
	.st11{fill:#6F7B83;}
	.st12{fill:#9AA3A8;}
	.st13{fill:#A15326;}
	.st14{fill:#BD8768;}
	.st15{fill:#918D86;}
	.st16{fill:none;stroke:#666666;stroke-width:1.852;stroke-linecap:round;stroke-linejoin:round;stroke-miterlimit:10;}
	.st17{fill:none;}
</style>
<g id="レイヤー_2">
</g>
<g id="レイヤー_3">
</g>
<g id="レイヤー_4">
</g>
<g id="レイヤー_5">
</g>
<g id="レイヤー_6">
</g>
<g id="レイヤー_7">
</g>
<g id="レイヤー_8">
</g>
<g id="レイヤー_9">
</g>
<g id="レイヤー_10">
</g>
<g id="レイヤー_11">
</g>
<g id="レイヤー_12">
</g>
<g id="レイヤー_13">
</g>
<g id="レイヤー_14">
</g>
<g id="レイヤー_15">
</g>
<g id="レイヤー_16">
</g>
<g id="レイヤー_17">
</g>
<g id="レイヤー_20">
</g>
<g id="レイヤー_18">
</g>
<g id="レイヤー_21">
</g>
<g id="レイヤー_19">
</g>
<g id="レイヤー_7のコピー">
</g>
<g id="レイヤー_7のコピー_2">
</g>
<g id="レイヤー_23">
</g>
<g id="レイヤー_24">
</g>
<g id="レイヤー_25">
</g>
<g id="レイヤー_26">
</g>
<g id="レイヤー_27">
	<path class="st1" d="M13.6,3.6c-0.4,0-0.7-0.2-0.8-0.5l0,0c-0.1-0.4,0.2-0.9,0.6-0.9C13.9,2,14.4,2,15,2c7.2,0,13,5.8,13,13
		c0,5.4-3.3,10-8,12c-0.4,0.2-0.9,0-1-0.5l0,0c-0.1-0.4,0.1-0.7,0.4-0.9c4.1-1.8,7.1-5.8,7.1-10.6c0-6.4-5.2-11.5-11.5-11.5
		C14.5,3.5,14,3.5,13.6,3.6z M13.6,26.5c-5.2-0.6-9.4-4.8-10-10C2.9,11,6.1,6.2,10.7,4.3c0.3-0.1,0.5-0.5,0.5-0.9l0,0
		c-0.1-0.4-0.6-0.6-1-0.5c-5.1,2-8.7,7.3-8.2,13.3c0.5,5.3,4.3,9.9,9.5,11.3c1.9,0.5,3.6,0.6,5.3,0.3c0.4-0.1,0.7-0.5,0.6-0.9l0,0
		c-0.1-0.4-0.5-0.6-0.8-0.5C15.7,26.6,14.6,26.6,13.6,26.5z M19.6,12.6L19.1,11c-0.1-0.3-0.3-0.5-0.6-0.5h-4l0,0h-3
		c-0.3,0-0.5,0.2-0.6,0.5l-0.5,1.6c-0.1,0.4,0.2,0.8,0.6,0.8h3.5h0.1H19C19.4,13.4,19.7,13,19.6,12.6z M19.8,15.6c-0.5,0-1,0.4-1,1
		s0.4,1,1,1s1-0.4,1-1S20.3,15.6,19.8,15.6z M16.5,15.6h-2h-1.1c-0.2,0-0.5,0.2-0.5,0.5v1.1c0,0.2,0.2,0.5,0.5,0.5h1.1h2
		c0.2,0,0.5-0.2,0.5-0.5V16C17,15.8,16.8,15.6,16.5,15.6z M10.2,15.6c-0.5,0-1,0.4-1,1s0.4,1,1,1c0.5,0,1-0.4,1-1
		S10.7,15.6,10.2,15.6z M23.1,20.7c0.4-0.4,0.5-0.9,0.5-1.6v-1.7c0-0.4-0.3-0.7-0.7-0.7s-0.7,0.3-0.7,0.7l0,1.7
		c0,0.5-0.1,0.6-0.2,0.6H8c-0.3,0-0.6-0.3-0.6-0.6c0,0,0-2.9,0-4.1l1-0.9c0.1-0.1,0.2-0.2,0.2-0.3l1.3-4.1c0.1-0.2,0.3-0.4,0.5-0.4
		h9.1c0.2,0,0.4,0.2,0.5,0.4l1.1,4c0,0.2,0.2,0.3,0.3,0.4l1.2,0.7l3.8,2.1c0.4,0.2,0.8,0.1,1-0.3c0.2-0.4,0.1-0.8-0.3-1l-3.8-2.1
		l-0.9-0.6l-1-3.7c-0.2-0.9-1-1.5-1.9-1.5h-9.1c-0.9,0-1.7,0.6-1.9,1.5l-1.2,3.8l-1.1,1C6.1,14.2,6,14.4,6,14.6c0,1,0,4.5,0,4.5
		c0,1.1,0.9,2,2,2H22c0,0,0,0,0,0C22.4,21.2,22.8,21,23.1,20.7z M20.9,21.9v-0.6v-1.1c0-0.2-0.2-0.5-0.5-0.5h-2.2
		c-0.2,0-0.5,0.2-0.5,0.5v1.1v0.6c0,0.8,0.7,1.5,1.5,1.5h0C20.2,23.5,20.9,22.8,20.9,21.9z M12.1,21.9v-0.6v-1.1
		c0-0.2-0.2-0.5-0.5-0.5H9.5c-0.2,0-0.5,0.2-0.5,0.5v1.1v0.6c0,0.8,0.7,1.5,1.5,1.5h0C11.5,23.5,12.1,22.8,12.1,21.9z"/>
</g>
<g id="レイヤー_28">
</g>
<g id="レイヤー_29">
</g>
</svg>
