<?xml version="1.0" encoding="utf-8"?>
<!-- Generator: Adobe Illustrator 20.0.0, SVG Export Plug-In . SVG Version: 6.00 Build 0)  -->
<svg version="1.1" xmlns="http://www.w3.org/2000/svg" xmlns:xlink="http://www.w3.org/1999/xlink" x="0px" y="0px"
	 viewBox="0 0 30 30" style="enable-background:new 0 0 30 30;" xml:space="preserve">
<style type="text/css">
	.st0{fill:#FFFFFF;}
	.st1{fill:#FF6010;}
	.st2{fill:#FFA600;}
	.st3{fill:#D6D4D0;}
	.st4{fill:#666666;}
	.st5{fill:#D4D2CE;}
	.st6{fill:none;stroke:#666666;stroke-width:2.4567;stroke-miterlimit:10;}
	.st7{fill:#CBCBCB;}
	.st8{fill:none;stroke:#FFA600;stroke-width:1.9654;stroke-miterlimit:10;}
	.st9{fill:#D9B340;}
	.st10{fill:#E4CA7A;}
	.st11{fill:#6F7B83;}
	.st12{fill:#9AA3A8;}
	.st13{fill:#A15326;}
	.st14{fill:#BD8768;}
	.st15{fill:#918D86;}
	.st16{fill:none;stroke:#666666;stroke-width:1.852;stroke-linecap:round;stroke-linejoin:round;stroke-miterlimit:10;}
	.st17{fill:none;}
</style>
<g id="レイヤー_2">
</g>
<g id="レイヤー_3">
</g>
<g id="レイヤー_4">
</g>
<g id="レイヤー_5">
</g>
<g id="レイヤー_6">
</g>
<g id="レイヤー_7">
</g>
<g id="レイヤー_8">
</g>
<g id="レイヤー_9">
</g>
<g id="レイヤー_10">
</g>
<g id="レイヤー_11">
</g>
<g id="レイヤー_12">
</g>
<g id="レイヤー_13">
</g>
<g id="レイヤー_14">
</g>
<g id="レイヤー_15">
</g>
<g id="レイヤー_16">
</g>
<g id="レイヤー_17">
</g>
<g id="レイヤー_20">
</g>
<g id="レイヤー_18">
</g>
<g id="レイヤー_21">
</g>
<g id="レイヤー_19">
</g>
<g id="レイヤー_7のコピー">
</g>
<g id="レイヤー_7のコピー_2">
</g>
<g id="レイヤー_23">
</g>
<g id="レイヤー_24">
</g>
<g id="レイヤー_25">
</g>
<g id="レイヤー_26">
</g>
<g id="レイヤー_27">
</g>
<g id="レイヤー_28">
</g>
<g id="レイヤー_29">
	<g>
		<g>
			<path class="st1" d="M15,1.8c-0.6,0-1.1,0-1.6,0.1c-0.4,0.1-0.7,0.5-0.6,0.9l0,0c0.1,0.4,0.4,0.6,0.8,0.5C14,3.3,14.5,3.3,15,3.3
				c6.4,0,11.5,5.2,11.5,11.7c0,4.8-2.9,9-7.1,10.8c-0.3,0.1-0.5,0.5-0.4,0.9l0,0c0.1,0.4,0.6,0.7,1,0.5c4.7-2,8-6.7,8-12.1
				C28,7.7,22.2,1.8,15,1.8z M17.5,27.1c-0.1-0.4-0.5-0.6-0.8-0.5c-0.2,0-0.5,0-0.7,0.1v-7.8h3.5c0.4,0,0.7-0.3,0.7-0.7
				c0-0.4-0.3-0.7-0.7-0.7H16v-1.4h3.5c0.4,0,0.7-0.3,0.7-0.7c0-0.4-0.3-0.7-0.7-0.7h-3l2.9-4.6c0.4-0.6-0.1-1.4-0.8-1.4
				c-0.3,0-0.6,0.2-0.8,0.4L15,13.7L12.1,9c-0.2-0.3-0.5-0.4-0.8-0.4c-0.7,0-1.1,0.8-0.8,1.4l2.9,4.6h-3c-0.4,0-0.7,0.3-0.7,0.7
				c0,0.4,0.3,0.7,0.7,0.7H14v1.4h-3.5c-0.4,0-0.7,0.3-0.7,0.7c0,0.4,0.3,0.7,0.7,0.7H14v7.8c-0.1,0-0.3,0-0.4,0
				c-5.2-0.6-9.4-4.8-10-10.1C2.9,11,6.1,6,10.7,4.1c0.3-0.1,0.5-0.5,0.5-0.9l0,0c-0.1-0.4-0.6-0.7-1-0.5c-5.1,2.1-8.7,7.4-8.2,13.4
				c0.5,5.4,4.3,10,9.5,11.5c1.9,0.5,3.6,0.6,5.3,0.3C17.3,28,17.6,27.5,17.5,27.1L17.5,27.1z"/>
		</g>
	</g>
</g>
</svg>
