<?xml version="1.0" encoding="utf-8"?>
<!-- Generator: Adobe Illustrator 21.0.0, SVG Export Plug-In . SVG Version: 6.00 Build 0)  -->
<svg version="1.1" xmlns="http://www.w3.org/2000/svg" xmlns:xlink="http://www.w3.org/1999/xlink" x="0px" y="0px"
	 viewBox="0 0 30 30" enable-background="new 0 0 30 30" xml:space="preserve">
<g id="レイヤー1">
</g>
<g id="レイヤー2">
</g>
<g id="レイヤー3">
</g>
<g id="レイヤー4">
</g>
<g id="レイヤー5">
</g>
<g id="レイヤー6">
</g>
<g id="レイヤー7">
</g>
<g id="レイヤー_9">
</g>
<g id="レイヤー_10">
</g>
<g id="レイヤー_11">
</g>
<g id="レイヤー_12">
</g>
<g id="レイヤー_13">
</g>
<g id="レイヤー_14">
</g>
<g id="レイヤー_15">
</g>
<g id="レイヤー_16">
</g>
<g id="レイヤー_17">
</g>
<g id="レイヤー_18">
</g>
<g id="レイヤー_19">
</g>
<g id="レイヤー_20">
</g>
<g id="レイヤー_21">
</g>
<g id="レイヤー22">
</g>
<g id="レイヤー23">
</g>
<g id="レイヤー_24">
</g>
<g id="レイヤー_25">
	<g>
		<circle fill="#918D86" cx="15" cy="15" r="13"/>
		<g>
			<path fill="#918D86" d="M15,26C8.935,26,4,21.065,4,15S8.935,4,15,4s11,4.935,11,11S21.065,26,15,26z"/>
			<path fill="#918D86" d="M15,5c5.514,0,10,4.486,10,10s-4.486,10-10,10S5,20.514,5,15S9.486,5,15,5 M15,3C8.373,3,3,8.373,3,15
				s5.373,12,12,12s12-5.373,12-12S21.627,3,15,3L15,3z"/>
		</g>
		<g>
			<path fill="#FFFFFF" d="M18.668,11.766L16.543,12c-0.052-0.438-0.188-0.76-0.406-0.969c-0.219-0.208-0.503-0.312-0.852-0.312
				c-0.464,0-0.855,0.209-1.176,0.625c-0.32,0.417-0.522,1.284-0.605,2.602c0.547-0.646,1.227-0.969,2.039-0.969
				c0.917,0,1.702,0.35,2.355,1.047c0.653,0.698,0.98,1.6,0.98,2.703c0,1.172-0.344,2.112-1.031,2.82
				c-0.688,0.709-1.57,1.062-2.648,1.062c-1.156,0-2.107-0.449-2.852-1.348c-0.745-0.898-1.117-2.371-1.117-4.418
				c0-2.099,0.388-3.611,1.164-4.539c0.776-0.927,1.784-1.391,3.023-1.391c0.87,0,1.59,0.244,2.16,0.73
				C18.148,10.132,18.512,10.839,18.668,11.766z M13.691,16.555c0,0.714,0.164,1.265,0.492,1.652
				c0.328,0.389,0.703,0.582,1.125,0.582c0.406,0,0.745-0.158,1.016-0.477c0.271-0.317,0.406-0.838,0.406-1.562
				c0-0.744-0.146-1.29-0.438-1.637c-0.292-0.346-0.656-0.52-1.094-0.52c-0.422,0-0.779,0.166-1.07,0.496
				C13.837,15.421,13.691,15.909,13.691,16.555z"/>
		</g>
	</g>
</g>
<g id="レイヤー_26">
</g>
<g id="レイヤー_25のコピー">
</g>
<g id="レイヤー_53">
</g>
<g id="レイヤー_26のコピー">
</g>
<g id="レイヤー_26のコピー_2">
</g>
<g id="レイヤー_27">
</g>
<g id="レイヤー_52">
</g>
<g id="レイヤー_28">
</g>
<g id="レイヤー_29">
</g>
<g id="レイヤー_30">
</g>
<g id="レイヤー_56">
</g>
<g id="レイヤー_55">
</g>
<g id="レイヤー_54">
</g>
<g id="レイヤー_31">
</g>
<g id="レイヤー_32">
</g>
<g id="レイヤー_33">
</g>
<g id="レイヤー_34">
</g>
<g id="レイヤー_57">
</g>
<g id="レイヤー_35">
</g>
<g id="レイヤー_37">
</g>
<g id="レイヤー_36">
</g>
<g id="レイヤー_38">
	<g id="レイヤー_23">
	</g>
	<g id="レイヤー_48">
	</g>
	<g id="レイヤー_42">
	</g>
</g>
<g id="レイヤー_49">
</g>
<g id="レイヤー_44">
</g>
<g id="レイヤー_45">
</g>
<g id="レイヤー_46">
</g>
<g id="レイヤー_47">
</g>
<g id="レイヤー_50">
</g>
<g id="レイヤー_51">
</g>
<g id="レイヤー_61">
</g>
<g id="レイヤー_60">
</g>
<g id="レイヤー_58">
</g>
<g id="レイヤー_59">
</g>
</svg>
