<?xml version="1.0" encoding="utf-8"?>
<!-- Generator: Adobe Illustrator 21.0.0, SVG Export Plug-In . SVG Version: 6.00 Build 0)  -->
<svg version="1.1" xmlns="http://www.w3.org/2000/svg" xmlns:xlink="http://www.w3.org/1999/xlink" x="0px" y="0px"
	 viewBox="0 0 30 30" enable-background="new 0 0 30 30" xml:space="preserve">
<g id="レイヤー1">
</g>
<g id="レイヤー2">
</g>
<g id="レイヤー3">
</g>
<g id="レイヤー4">
</g>
<g id="レイヤー5">
</g>
<g id="レイヤー6">
</g>
<g id="レイヤー7">
</g>
<g id="レイヤー_9">
</g>
<g id="レイヤー_10">
</g>
<g id="レイヤー_11">
</g>
<g id="レイヤー_12">
</g>
<g id="レイヤー_13">
	<g>
		<circle fill="#D9B340" cx="15" cy="15" r="13"/>
		<g>
			<path fill="#D9B340" d="M15,26C8.935,26,4,21.065,4,15S8.935,4,15,4s11,4.935,11,11S21.066,26,15,26z"/>
			<path fill="#E4CA7A" d="M15,5c5.514,0,10,4.486,10,10s-4.486,10-10,10S5,20.514,5,15S9.486,5,15,5 M15,3C8.373,3,3,8.373,3,15
				c0,6.627,5.373,12,12,12c6.627,0,12-5.373,12-12C27,8.373,21.627,3,15,3L15,3z"/>
		</g>
		<g>
			<path fill="#FFFFFF" d="M16.848,20.415h-2.195v-8.273c-0.802,0.75-1.747,1.305-2.836,1.664v-1.992
				c0.573-0.188,1.195-0.543,1.867-1.066s1.133-1.134,1.383-1.832h1.781V20.415z"/>
		</g>
	</g>
</g>
<g id="レイヤー_14">
</g>
<g id="レイヤー_15">
</g>
<g id="レイヤー_16">
</g>
<g id="レイヤー_17">
</g>
<g id="レイヤー_18">
</g>
<g id="レイヤー_19">
</g>
<g id="レイヤー_20">
</g>
<g id="レイヤー_21">
</g>
<g id="レイヤー22">
</g>
<g id="レイヤー23">
</g>
<g id="レイヤー_24">
</g>
<g id="レイヤー_25">
</g>
<g id="レイヤー_26">
</g>
<g id="レイヤー_25のコピー">
</g>
<g id="レイヤー_53">
</g>
<g id="レイヤー_26のコピー">
</g>
<g id="レイヤー_26のコピー_2">
</g>
<g id="レイヤー_27">
</g>
<g id="レイヤー_52">
</g>
<g id="レイヤー_28">
</g>
<g id="レイヤー_29">
</g>
<g id="レイヤー_30">
</g>
<g id="レイヤー_56">
</g>
<g id="レイヤー_55">
</g>
<g id="レイヤー_54">
</g>
<g id="レイヤー_31">
</g>
<g id="レイヤー_32">
</g>
<g id="レイヤー_33">
</g>
<g id="レイヤー_34">
</g>
<g id="レイヤー_57">
</g>
<g id="レイヤー_35">
</g>
<g id="レイヤー_37">
</g>
<g id="レイヤー_36">
</g>
<g id="レイヤー_38">
	<g id="レイヤー_23">
	</g>
	<g id="レイヤー_48">
	</g>
	<g id="レイヤー_42">
	</g>
</g>
<g id="レイヤー_49">
</g>
<g id="レイヤー_44">
</g>
<g id="レイヤー_45">
</g>
<g id="レイヤー_46">
</g>
<g id="レイヤー_47">
</g>
<g id="レイヤー_50">
</g>
<g id="レイヤー_51">
</g>
<g id="レイヤー_61">
</g>
<g id="レイヤー_60">
</g>
<g id="レイヤー_58">
</g>
<g id="レイヤー_59">
</g>
</svg>
