<?xml version="1.0" encoding="utf-8"?>
<!-- Generator: Adobe Illustrator 21.0.0, SVG Export Plug-In . SVG Version: 6.00 Build 0)  -->
<svg version="1.1" xmlns="http://www.w3.org/2000/svg" xmlns:xlink="http://www.w3.org/1999/xlink" x="0px" y="0px"
	 viewBox="0 0 30 30" enable-background="new 0 0 30 30" xml:space="preserve">
<g id="レイヤー1">
</g>
<g id="レイヤー2">
</g>
<g id="レイヤー3">
</g>
<g id="レイヤー4">
</g>
<g id="レイヤー5">
</g>
<g id="レイヤー6">
</g>
<g id="レイヤー7">
</g>
<g id="レイヤー_9">
</g>
<g id="レイヤー_10">
</g>
<g id="レイヤー_11">
</g>
<g id="レイヤー_12">
</g>
<g id="レイヤー_13">
</g>
<g id="レイヤー_14">
</g>
<g id="レイヤー_15">
</g>
<g id="レイヤー_16">
</g>
<g id="レイヤー_17">
	<g>
		<circle fill="#918D86" cx="15" cy="15" r="13"/>
		<g>
			<path fill="#918D86" d="M15,26C8.935,26,4,21.066,4,15S8.935,4,15,4s11,4.935,11,11S21.066,26,15,26z"/>
			<path fill="#918D86" d="M15,5c5.514,0,10,4.486,10,10s-4.486,10-10,10S5,20.514,5,15S9.486,5,15,5 M15,3C8.373,3,3,8.373,3,15
				c0,6.627,5.373,12,12,12s12-5.373,12-12C27,8.373,21.627,3,15,3L15,3z"/>
		</g>
		<g>
			<path fill="#FFFFFF" d="M11.263,17.469l2.188-0.227c0.062,0.495,0.247,0.887,0.555,1.176c0.307,0.289,0.661,0.434,1.062,0.434
				c0.458,0,0.846-0.186,1.164-0.559c0.317-0.372,0.477-0.934,0.477-1.684c0-0.703-0.158-1.23-0.473-1.582
				c-0.315-0.352-0.726-0.527-1.23-0.527c-0.63,0-1.195,0.279-1.695,0.836l-1.781-0.258l1.125-5.961h5.805v2.055h-4.141
				l-0.344,1.945c0.489-0.244,0.989-0.367,1.5-0.367c0.974,0,1.799,0.354,2.477,1.062c0.677,0.709,1.016,1.628,1.016,2.758
				c0,0.943-0.273,1.784-0.82,2.523c-0.745,1.011-1.779,1.516-3.102,1.516c-1.058,0-1.919-0.283-2.586-0.852
				C11.791,19.191,11.393,18.428,11.263,17.469z"/>
		</g>
	</g>
</g>
<g id="レイヤー_18">
</g>
<g id="レイヤー_19">
</g>
<g id="レイヤー_20">
</g>
<g id="レイヤー_21">
</g>
<g id="レイヤー22">
</g>
<g id="レイヤー23">
</g>
<g id="レイヤー_24">
</g>
<g id="レイヤー_25">
</g>
<g id="レイヤー_26">
</g>
<g id="レイヤー_25のコピー">
</g>
<g id="レイヤー_53">
</g>
<g id="レイヤー_26のコピー">
</g>
<g id="レイヤー_26のコピー_2">
</g>
<g id="レイヤー_27">
</g>
<g id="レイヤー_52">
</g>
<g id="レイヤー_28">
</g>
<g id="レイヤー_29">
</g>
<g id="レイヤー_30">
</g>
<g id="レイヤー_56">
</g>
<g id="レイヤー_55">
</g>
<g id="レイヤー_54">
</g>
<g id="レイヤー_31">
</g>
<g id="レイヤー_32">
</g>
<g id="レイヤー_33">
</g>
<g id="レイヤー_34">
</g>
<g id="レイヤー_57">
</g>
<g id="レイヤー_35">
</g>
<g id="レイヤー_37">
</g>
<g id="レイヤー_36">
</g>
<g id="レイヤー_38">
	<g id="レイヤー_23">
	</g>
	<g id="レイヤー_48">
	</g>
	<g id="レイヤー_42">
	</g>
</g>
<g id="レイヤー_49">
</g>
<g id="レイヤー_44">
</g>
<g id="レイヤー_45">
</g>
<g id="レイヤー_46">
</g>
<g id="レイヤー_47">
</g>
<g id="レイヤー_50">
</g>
<g id="レイヤー_51">
</g>
<g id="レイヤー_61">
</g>
<g id="レイヤー_60">
</g>
<g id="レイヤー_58">
</g>
<g id="レイヤー_59">
</g>
</svg>
