<?xml version="1.0" encoding="utf-8"?>
<!-- Generator: Adobe Illustrator 21.0.0, SVG Export Plug-In . SVG Version: 6.00 Build 0)  -->
<svg version="1.1" xmlns="http://www.w3.org/2000/svg" xmlns:xlink="http://www.w3.org/1999/xlink" x="0px" y="0px"
	 viewBox="0 0 30 30" enable-background="new 0 0 30 30" xml:space="preserve">
<g id="レイヤー1">
</g>
<g id="レイヤー2">
</g>
<g id="レイヤー3">
</g>
<g id="レイヤー4">
</g>
<g id="レイヤー5">
</g>
<g id="レイヤー6">
</g>
<g id="レイヤー7">
</g>
<g id="レイヤー_9">
</g>
<g id="レイヤー_10">
</g>
<g id="レイヤー_11">
</g>
<g id="レイヤー_12">
</g>
<g id="レイヤー_13">
</g>
<g id="レイヤー_14">
</g>
<g id="レイヤー_15">
</g>
<g id="レイヤー_16">
</g>
<g id="レイヤー_17">
</g>
<g id="レイヤー_18">
</g>
<g id="レイヤー_19">
</g>
<g id="レイヤー_20">
</g>
<g id="レイヤー_21">
</g>
<g id="レイヤー22">
</g>
<g id="レイヤー23">
</g>
<g id="レイヤー_24">
</g>
<g id="レイヤー_25">
</g>
<g id="レイヤー_26">
	<g>
		<circle fill="#918D86" cx="15" cy="15" r="13"/>
		<g>
			<path fill="#918D86" d="M15,26C8.935,26,4,21.065,4,15S8.935,4,15,4s11,4.935,11,11S21.065,26,15,26z"/>
			<path fill="#918D86" d="M15,5c5.514,0,10,4.486,10,10s-4.486,10-10,10S5,20.514,5,15S9.486,5,15,5 M15,3C8.373,3,3,8.373,3,15
				s5.373,12,12,12s12-5.373,12-12S21.627,3,15,3L15,3z"/>
		</g>
		<g>
			<path fill="#FFFFFF" d="M11.911,11.156V9.117h7.508v1.594c-0.62,0.609-1.25,1.484-1.891,2.625s-1.129,2.354-1.465,3.637
				c-0.336,1.284-0.501,2.432-0.496,3.441H13.45c0.036-1.583,0.363-3.197,0.98-4.844c0.617-1.646,1.441-3.117,2.473-4.414H11.911z"
				/>
		</g>
	</g>
</g>
<g id="レイヤー_25のコピー">
</g>
<g id="レイヤー_53">
</g>
<g id="レイヤー_26のコピー">
</g>
<g id="レイヤー_26のコピー_2">
</g>
<g id="レイヤー_27">
</g>
<g id="レイヤー_52">
</g>
<g id="レイヤー_28">
</g>
<g id="レイヤー_29">
</g>
<g id="レイヤー_30">
</g>
<g id="レイヤー_56">
</g>
<g id="レイヤー_55">
</g>
<g id="レイヤー_54">
</g>
<g id="レイヤー_31">
</g>
<g id="レイヤー_32">
</g>
<g id="レイヤー_33">
</g>
<g id="レイヤー_34">
</g>
<g id="レイヤー_57">
</g>
<g id="レイヤー_35">
</g>
<g id="レイヤー_37">
</g>
<g id="レイヤー_36">
</g>
<g id="レイヤー_38">
	<g id="レイヤー_23">
	</g>
	<g id="レイヤー_48">
	</g>
	<g id="レイヤー_42">
	</g>
</g>
<g id="レイヤー_49">
</g>
<g id="レイヤー_44">
</g>
<g id="レイヤー_45">
</g>
<g id="レイヤー_46">
</g>
<g id="レイヤー_47">
</g>
<g id="レイヤー_50">
</g>
<g id="レイヤー_51">
</g>
<g id="レイヤー_61">
</g>
<g id="レイヤー_60">
</g>
<g id="レイヤー_58">
</g>
<g id="レイヤー_59">
</g>
</svg>
