<?xml version="1.0" encoding="utf-8"?>
<!-- Generator: Adobe Illustrator 21.0.0, SVG Export Plug-In . SVG Version: 6.00 Build 0)  -->
<svg version="1.1" xmlns="http://www.w3.org/2000/svg" xmlns:xlink="http://www.w3.org/1999/xlink" x="0px" y="0px"
	 viewBox="0 0 30 30" enable-background="new 0 0 30 30" xml:space="preserve">
<g id="レイヤー1">
</g>
<g id="レイヤー2">
</g>
<g id="レイヤー3">
</g>
<g id="レイヤー4">
</g>
<g id="レイヤー5">
</g>
<g id="レイヤー6">
</g>
<g id="レイヤー7">
</g>
<g id="レイヤー_9">
</g>
<g id="レイヤー_10">
</g>
<g id="レイヤー_11">
</g>
<g id="レイヤー_12">
</g>
<g id="レイヤー_13">
</g>
<g id="レイヤー_14">
</g>
<g id="レイヤー_15">
	<g>
		<circle fill="#A15326" cx="15" cy="15" r="13"/>
		<g>
			<path fill="#A15326" d="M15,26C8.935,26,4,21.066,4,15S8.935,4,15,4s11,4.935,11,11S21.065,26,15,26z"/>
			<path fill="#BD8768" d="M15,5c5.514,0,10,4.486,10,10s-4.486,10-10,10S5,20.514,5,15S9.486,5,15,5 M15,3C8.373,3,3,8.373,3,15
				s5.373,12,12,12s12-5.373,12-12S21.627,3,15,3L15,3z"/>
		</g>
		<g>
			<path fill="#FFFFFF" d="M11.154,17.376l2.125-0.258c0.067,0.542,0.25,0.956,0.547,1.242s0.656,0.43,1.078,0.43
				c0.453,0,0.834-0.172,1.145-0.516c0.31-0.344,0.465-0.808,0.465-1.391c0-0.552-0.148-0.989-0.445-1.312s-0.659-0.484-1.086-0.484
				c-0.281,0-0.617,0.055-1.008,0.164l0.242-1.789c0.594,0.016,1.047-0.113,1.359-0.387s0.469-0.637,0.469-1.09
				c0-0.386-0.115-0.692-0.344-0.922c-0.229-0.229-0.534-0.344-0.914-0.344c-0.375,0-0.695,0.13-0.961,0.391
				s-0.428,0.641-0.484,1.141l-2.023-0.344c0.141-0.692,0.353-1.246,0.637-1.66c0.283-0.414,0.68-0.739,1.188-0.977
				s1.076-0.355,1.707-0.355c1.078,0,1.942,0.344,2.594,1.031c0.536,0.562,0.805,1.198,0.805,1.906c0,1.005-0.55,1.808-1.648,2.406
				c0.656,0.141,1.181,0.456,1.574,0.945c0.393,0.489,0.59,1.081,0.59,1.773c0,1.005-0.367,1.862-1.102,2.57
				s-1.648,1.062-2.742,1.062c-1.037,0-1.896-0.298-2.578-0.895C11.659,19.119,11.263,18.34,11.154,17.376z"/>
		</g>
	</g>
</g>
<g id="レイヤー_16">
</g>
<g id="レイヤー_17">
</g>
<g id="レイヤー_18">
</g>
<g id="レイヤー_19">
</g>
<g id="レイヤー_20">
</g>
<g id="レイヤー_21">
</g>
<g id="レイヤー22">
</g>
<g id="レイヤー23">
</g>
<g id="レイヤー_24">
</g>
<g id="レイヤー_25">
</g>
<g id="レイヤー_26">
</g>
<g id="レイヤー_25のコピー">
</g>
<g id="レイヤー_53">
</g>
<g id="レイヤー_26のコピー">
</g>
<g id="レイヤー_26のコピー_2">
</g>
<g id="レイヤー_27">
</g>
<g id="レイヤー_52">
</g>
<g id="レイヤー_28">
</g>
<g id="レイヤー_29">
</g>
<g id="レイヤー_30">
</g>
<g id="レイヤー_56">
</g>
<g id="レイヤー_55">
</g>
<g id="レイヤー_54">
</g>
<g id="レイヤー_31">
</g>
<g id="レイヤー_32">
</g>
<g id="レイヤー_33">
</g>
<g id="レイヤー_34">
</g>
<g id="レイヤー_57">
</g>
<g id="レイヤー_35">
</g>
<g id="レイヤー_37">
</g>
<g id="レイヤー_36">
</g>
<g id="レイヤー_38">
	<g id="レイヤー_23">
	</g>
	<g id="レイヤー_48">
	</g>
	<g id="レイヤー_42">
	</g>
</g>
<g id="レイヤー_49">
</g>
<g id="レイヤー_44">
</g>
<g id="レイヤー_45">
</g>
<g id="レイヤー_46">
</g>
<g id="レイヤー_47">
</g>
<g id="レイヤー_50">
</g>
<g id="レイヤー_51">
</g>
<g id="レイヤー_61">
</g>
<g id="レイヤー_60">
</g>
<g id="レイヤー_58">
</g>
<g id="レイヤー_59">
</g>
</svg>
